<mxfile host="app.diagrams.net" agent="Mozilla/5.0 (Windows NT 10.0; Win64; x64) AppleWebKit/537.36 (KHTML, like Gecko) Chrome/133.0.0.0 Safari/537.36" version="26.1.0">
  <diagram name="1 oldal" id="4veMvRN0ZkE5KroLC7hb">
    <mxGraphModel grid="1" page="1" gridSize="10" guides="1" tooltips="1" connect="1" arrows="1" fold="1" pageScale="1" pageWidth="827" pageHeight="1169" math="0" shadow="0">
      <root>
        <mxCell id="0" />
        <mxCell id="1" parent="0" />
        <mxCell id="Tmp2gUFDtO5R_zg5TAwZ-1" value="BSW6DS_orarend" style="ellipse;whiteSpace=wrap;html=1;fillColor=#d5e8d4;strokeColor=light-dark(#000000, #446e2c);strokeWidth=4;fontStyle=1" vertex="1" parent="1">
          <mxGeometry x="324" y="20" width="186" height="80" as="geometry" />
        </mxCell>
        <mxCell id="Tmp2gUFDtO5R_zg5TAwZ-2" value="" style="ellipse;whiteSpace=wrap;html=1;fillColor=#d80073;fontColor=#ffffff;strokeColor=light-dark(#030303, #ffa9e0);strokeWidth=3;" vertex="1" parent="1">
          <mxGeometry x="357" y="140" width="120" height="80" as="geometry" />
        </mxCell>
        <mxCell id="Tmp2gUFDtO5R_zg5TAwZ-12" value="tipus" style="rhombus;whiteSpace=wrap;html=1;fillColor=#fad7ac;strokeColor=light-dark(#030303, #46a8af);fontStyle=1" vertex="1" parent="1">
          <mxGeometry x="670" y="225" width="70" height="70" as="geometry" />
        </mxCell>
        <mxCell id="Tmp2gUFDtO5R_zg5TAwZ-18" value="" style="endArrow=classic;html=1;rounded=0;exitX=0.495;exitY=1.026;exitDx=0;exitDy=0;exitPerimeter=0;entryX=0.495;entryY=-0.001;entryDx=0;entryDy=0;entryPerimeter=0;" edge="1" parent="1" source="Tmp2gUFDtO5R_zg5TAwZ-1" target="Tmp2gUFDtO5R_zg5TAwZ-2">
          <mxGeometry width="50" height="50" relative="1" as="geometry">
            <mxPoint x="416.5" y="90" as="sourcePoint" />
            <mxPoint x="416.5" y="140" as="targetPoint" />
          </mxGeometry>
        </mxCell>
        <mxCell id="Tmp2gUFDtO5R_zg5TAwZ-19" value="" style="endArrow=classic;html=1;rounded=0;exitX=0.5;exitY=1;exitDx=0;exitDy=0;" edge="1" parent="1" source="Tmp2gUFDtO5R_zg5TAwZ-2">
          <mxGeometry width="50" height="50" relative="1" as="geometry">
            <mxPoint x="416.5" y="210" as="sourcePoint" />
            <mxPoint x="416.5" y="240" as="targetPoint" />
          </mxGeometry>
        </mxCell>
        <mxCell id="Tmp2gUFDtO5R_zg5TAwZ-22" value="" style="endArrow=classic;html=1;rounded=0;exitX=0.065;exitY=0.748;exitDx=0;exitDy=0;entryX=0.5;entryY=0;entryDx=0;entryDy=0;exitPerimeter=0;" edge="1" parent="1" source="Tmp2gUFDtO5R_zg5TAwZ-2" target="Tmp2gUFDtO5R_zg5TAwZ-31">
          <mxGeometry width="50" height="50" relative="1" as="geometry">
            <mxPoint x="220" y="180" as="sourcePoint" />
            <mxPoint x="222" y="239" as="targetPoint" />
            <Array as="points">
              <mxPoint x="222" y="200" />
            </Array>
          </mxGeometry>
        </mxCell>
        <mxCell id="Tmp2gUFDtO5R_zg5TAwZ-23" value="" style="endArrow=classic;html=1;rounded=0;exitX=0.171;exitY=0.873;exitDx=0;exitDy=0;exitPerimeter=0;entryX=0.502;entryY=-0.032;entryDx=0;entryDy=0;entryPerimeter=0;" edge="1" parent="1" source="Tmp2gUFDtO5R_zg5TAwZ-2" target="Tmp2gUFDtO5R_zg5TAwZ-56">
          <mxGeometry width="50" height="50" relative="1" as="geometry">
            <mxPoint x="380" y="210" as="sourcePoint" />
            <mxPoint x="320" y="240" as="targetPoint" />
            <Array as="points">
              <mxPoint x="320" y="210" />
            </Array>
          </mxGeometry>
        </mxCell>
        <mxCell id="Tmp2gUFDtO5R_zg5TAwZ-25" value="" style="endArrow=classic;html=1;rounded=0;exitX=0.929;exitY=0.752;exitDx=0;exitDy=0;entryX=0.458;entryY=0;entryDx=0;entryDy=0;entryPerimeter=0;exitPerimeter=0;" edge="1" parent="1" source="Tmp2gUFDtO5R_zg5TAwZ-2" target="Tmp2gUFDtO5R_zg5TAwZ-42">
          <mxGeometry width="50" height="50" relative="1" as="geometry">
            <mxPoint x="821" y="200" as="sourcePoint" />
            <mxPoint x="650" y="240" as="targetPoint" />
            <Array as="points">
              <mxPoint x="610" y="200" />
            </Array>
          </mxGeometry>
        </mxCell>
        <mxCell id="Tmp2gUFDtO5R_zg5TAwZ-30" value="&lt;u&gt;Id&lt;/u&gt;" style="rhombus;whiteSpace=wrap;html=1;fillColor=#fad7ac;strokeColor=light-dark(#030303, #46a8af);fontStyle=1" vertex="1" parent="1">
          <mxGeometry x="100" y="225" width="70" height="70" as="geometry" />
        </mxCell>
        <mxCell id="Tmp2gUFDtO5R_zg5TAwZ-31" value="kurzus" style="rounded=0;whiteSpace=wrap;html=1;fillColor=#b0e3e6;strokeColor=light-dark(#030303, #46a8af);fontStyle=1" vertex="1" parent="1">
          <mxGeometry x="180" y="240" width="83" height="40" as="geometry" />
        </mxCell>
        <mxCell id="Tmp2gUFDtO5R_zg5TAwZ-40" value="helyszin" style="rounded=0;whiteSpace=wrap;html=1;fillColor=#b0e3e6;strokeColor=light-dark(#030303, #46a8af);fontStyle=1" vertex="1" parent="1">
          <mxGeometry x="375.5" y="240" width="83" height="40" as="geometry" />
        </mxCell>
        <mxCell id="Tmp2gUFDtO5R_zg5TAwZ-41" value="oktato" style="rounded=0;whiteSpace=wrap;html=1;fillColor=#b0e3e6;strokeColor=light-dark(#030303, #46a8af);fontStyle=1" vertex="1" parent="1">
          <mxGeometry x="472" y="240" width="83" height="40" as="geometry" />
        </mxCell>
        <mxCell id="Tmp2gUFDtO5R_zg5TAwZ-42" value="szak" style="rounded=0;whiteSpace=wrap;html=1;fillColor=#b0e3e6;strokeColor=light-dark(#030303, #46a8af);fontStyle=1" vertex="1" parent="1">
          <mxGeometry x="572" y="240" width="83" height="40" as="geometry" />
        </mxCell>
        <mxCell id="Tmp2gUFDtO5R_zg5TAwZ-43" value="" style="endArrow=classic;html=1;rounded=0;entryX=0.576;entryY=-0.007;entryDx=0;entryDy=0;exitX=0.828;exitY=0.879;exitDx=0;exitDy=0;exitPerimeter=0;entryPerimeter=0;" edge="1" parent="1" source="Tmp2gUFDtO5R_zg5TAwZ-2" target="Tmp2gUFDtO5R_zg5TAwZ-41">
          <mxGeometry width="50" height="50" relative="1" as="geometry">
            <mxPoint x="560" y="210" as="sourcePoint" />
            <mxPoint x="510" y="238" as="targetPoint" />
            <Array as="points">
              <mxPoint x="520" y="210" />
            </Array>
          </mxGeometry>
        </mxCell>
        <mxCell id="Tmp2gUFDtO5R_zg5TAwZ-44" value="" style="endArrow=classic;html=1;rounded=0;exitX=0.065;exitY=0.748;exitDx=0;exitDy=0;entryX=0.5;entryY=0;entryDx=0;entryDy=0;exitPerimeter=0;" edge="1" parent="1" target="Tmp2gUFDtO5R_zg5TAwZ-30">
          <mxGeometry width="50" height="50" relative="1" as="geometry">
            <mxPoint x="357" y="185" as="sourcePoint" />
            <mxPoint x="214" y="225" as="targetPoint" />
            <Array as="points">
              <mxPoint x="135" y="185" />
            </Array>
          </mxGeometry>
        </mxCell>
        <mxCell id="Tmp2gUFDtO5R_zg5TAwZ-45" value="" style="endArrow=classic;html=1;rounded=0;exitX=0.937;exitY=0.736;exitDx=0;exitDy=0;entryX=0.5;entryY=0;entryDx=0;entryDy=0;exitPerimeter=0;" edge="1" parent="1" target="Tmp2gUFDtO5R_zg5TAwZ-12">
          <mxGeometry width="50" height="50" relative="1" as="geometry">
            <mxPoint x="477" y="184" as="sourcePoint" />
            <mxPoint x="705" y="225" as="targetPoint" />
            <Array as="points">
              <mxPoint x="705" y="184" />
            </Array>
          </mxGeometry>
        </mxCell>
        <mxCell id="Tmp2gUFDtO5R_zg5TAwZ-46" value="nap" style="rounded=0;whiteSpace=wrap;html=1;fillColor=#bac8d3;strokeColor=light-dark(#030303, #46a8af);fontStyle=1" vertex="1" parent="1">
          <mxGeometry x="180" y="320" width="83" height="40" as="geometry" />
        </mxCell>
        <mxCell id="Tmp2gUFDtO5R_zg5TAwZ-47" value="tol" style="rounded=0;whiteSpace=wrap;html=1;fillColor=#bac8d3;strokeColor=light-dark(#030303, #46a8af);fontStyle=1" vertex="1" parent="1">
          <mxGeometry x="279" y="320" width="83" height="40" as="geometry" />
        </mxCell>
        <mxCell id="Tmp2gUFDtO5R_zg5TAwZ-48" value="ig" style="rounded=0;whiteSpace=wrap;html=1;fillColor=#bac8d3;strokeColor=light-dark(#030303, #46a8af);fontStyle=1" vertex="1" parent="1">
          <mxGeometry x="375.5" y="320" width="83" height="40" as="geometry" />
        </mxCell>
        <mxCell id="Tmp2gUFDtO5R_zg5TAwZ-50" value="" style="endArrow=classic;html=1;rounded=0;exitX=0.511;exitY=1.014;exitDx=0;exitDy=0;entryX=0.5;entryY=0;entryDx=0;entryDy=0;exitPerimeter=0;" edge="1" parent="1" source="Tmp2gUFDtO5R_zg5TAwZ-56" target="Tmp2gUFDtO5R_zg5TAwZ-47">
          <mxGeometry width="50" height="50" relative="1" as="geometry">
            <mxPoint x="320.75" y="280" as="sourcePoint" />
            <mxPoint x="320.25" y="300" as="targetPoint" />
          </mxGeometry>
        </mxCell>
        <mxCell id="Tmp2gUFDtO5R_zg5TAwZ-51" value="" style="endArrow=classic;html=1;rounded=0;exitX=0.738;exitY=0.973;exitDx=0;exitDy=0;exitPerimeter=0;entryX=0.488;entryY=0;entryDx=0;entryDy=0;entryPerimeter=0;" edge="1" parent="1" source="Tmp2gUFDtO5R_zg5TAwZ-56" target="Tmp2gUFDtO5R_zg5TAwZ-48">
          <mxGeometry width="50" height="50" relative="1" as="geometry">
            <mxPoint x="340.0049999999999" y="280" as="sourcePoint" />
            <mxPoint x="416" y="310" as="targetPoint" />
            <Array as="points">
              <mxPoint x="340" y="290" />
              <mxPoint x="416" y="290" />
            </Array>
          </mxGeometry>
        </mxCell>
        <mxCell id="Tmp2gUFDtO5R_zg5TAwZ-52" value="" style="endArrow=classic;html=1;rounded=0;exitX=0.267;exitY=0.975;exitDx=0;exitDy=0;entryX=0.488;entryY=0;entryDx=0;entryDy=0;entryPerimeter=0;exitPerimeter=0;" edge="1" parent="1" source="Tmp2gUFDtO5R_zg5TAwZ-56">
          <mxGeometry width="50" height="50" relative="1" as="geometry">
            <mxPoint x="299.75" y="280" as="sourcePoint" />
            <mxPoint x="226" y="320" as="targetPoint" />
            <Array as="points">
              <mxPoint x="300" y="290" />
              <mxPoint x="226" y="290" />
            </Array>
          </mxGeometry>
        </mxCell>
        <mxCell id="Tmp2gUFDtO5R_zg5TAwZ-55" value="ora" style="ellipse;whiteSpace=wrap;html=1;fillColor=#d80073;fontColor=light-dark(#000000, #121212);strokeColor=light-dark(#000000, #ffa9e0);strokeWidth=3;fontStyle=1" vertex="1" parent="1">
          <mxGeometry x="362" y="145" width="110" height="70" as="geometry" />
        </mxCell>
        <mxCell id="Tmp2gUFDtO5R_zg5TAwZ-56" value="időpont" style="ellipse;whiteSpace=wrap;html=1;strokeWidth=3;fillColor=#f8cecc;strokeColor=light-dark(#000000, #d7817e);fontStyle=1;gradientColor=#ea6b66;" vertex="1" parent="1">
          <mxGeometry x="277.5" y="240" width="84.5" height="40" as="geometry" />
        </mxCell>
      </root>
    </mxGraphModel>
  </diagram>
</mxfile>
